<?xml version="1.0" standalone="no"?>
<!DOCTYPE svg PUBLIC "-//W3C//DTD SVG 1.1//EN" "http://www.w3.org/Graphics/SVG/1.1/DTD/svg11.dtd" >
<svg xmlns="http://www.w3.org/2000/svg">
<metadata>Generated by IcoMoon</metadata>
<defs>
<font id="icomoon" horiz-adv-x="1024">
<font-face units-per-em="1024" ascent="960" descent="-64" />
<missing-glyph horiz-adv-x="1024" />
<glyph unicode="&#x20;" horiz-adv-x="512" d="" />
<glyph unicode="&#xe900;" glyph-name="delete" d="M989.385 758.304l-310.266-310.298 310.266-310.283c46.15-46.168 46.15-120.954 0-167.122-23.059-23.059-53.291-34.597-83.508-34.597-30.267 0-60.502 11.521-83.544 34.597l-310.333 310.318-310.31-310.316c-23.056-23.059-53.291-34.597-83.535-34.597-30.235 0-60.449 11.521-83.526 34.597-46.15 46.148-46.15 120.937 0 167.122l310.257 310.283-310.274 310.295c-46.15 46.15-46.15 120.954 0 167.105 46.142 46.115 120.901 46.115 167.061 0l310.324-310.298 310.301 310.298c46.168 46.115 120.937 46.115 167.069 0 46.168-46.15 46.168-120.954 0.018-167.105z" />
<glyph unicode="&#xe901;" glyph-name="clothes-hanger-(1)" d="M512.032 766.69c-18.705 0-33.886-15.179-33.886-33.892v-101.122c-49.751-2.088-99.139-9.271-147.468-20.493 2.521-8.9 4.175-18.070 4.175-27.556 0-25.804 5.821-50.162 15.816-72.291 105.194 24.745 217.508 24.745 322.726 0 9.937 22.13 15.76 46.489 15.76 72.291 0 9.47 1.687 18.657 4.234 27.556-48.355 11.222-97.707 18.405-147.458 20.493v71.694c55.573 14.961 96.617 65.821 96.617 126.079 0.002 71.977-58.514 130.552-130.514 130.552-71.985 0-130.573-58.575-130.573-130.552 0-18.715 15.186-33.892 33.888-33.892 18.738 0 33.899 15.177 33.899 33.892 0 34.609 28.198 62.759 62.788 62.759 34.592 0 62.729-28.149 62.729-62.759-0.006-34.609-28.141-62.759-62.733-62.759zM998.972 540.116l-197.010 74.576c-3.802 1.442-7.816 2.153-11.78 2.153-6.619 0-13.249-2-18.868-5.873-8.975-6.206-14.372-16.42-14.372-27.344 0-135.28-109.629-244.943-244.943-244.943-135.242 0-244.941 109.663-244.941 244.943 0 10.924-5.362 21.149-14.326 27.344-5.634 3.884-12.216 5.873-18.87 5.89-3.976 0-7.977-0.727-11.78-2.169l-197.022-74.576c-12.941-4.898-21.484-17.258-21.484-31.082v-539.817c0-18.34 14.903-33.217 33.241-33.217h950.411c18.338 0 33.194 14.877 33.194 33.217v539.817c-0.002 13.823-8.533 26.183-21.45 31.082z" />
<glyph unicode="&#xe902;" glyph-name="info" d="M724.675 46.507l-14.308-58.488c-42.923-16.942-77.21-29.836-102.742-38.702-25.559-8.893-55.258-13.317-89.095-13.317-51.963 0-92.381 12.729-121.207 38.013-28.827 25.385-43.244 57.552-43.244 96.575 0 15.106 1.046 30.644 3.221 46.475 2.193 15.85 5.681 33.7 10.453 53.652l53.643 189.865c4.772 18.181 8.829 35.407 12.078 51.697 3.295 16.189 4.882 31.084 4.882 44.493 0 24.247-5.020 41.207-15.014 50.743-9.994 9.508-29.065 14.335-57.378 14.335-13.867 0-28.12-2.221-42.648-6.516-14.592-4.313-27.065-8.48-37.536-12.353l14.344 58.534c35.141 14.308 68.73 26.56 100.861 36.728 32.13 10.196 62.49 15.299 91.206 15.299 51.605 0 91.426-12.472 119.39-37.417 27.964-24.963 41.941-57.323 41.941-97.199 0-8.251-0.918-22.788-2.891-43.566-1.927-20.824-5.516-39.904-10.747-57.259l-53.413-189.103c-4.378-15.189-8.315-32.553-11.738-52.092-3.533-19.41-5.222-34.241-5.222-44.19 0-25.11 5.598-42.253 16.822-51.367 11.307-9.113 30.781-13.647 58.442-13.647 12.986 0 27.762 2.304 44.181 6.828 16.373 4.525 28.313 8.498 35.719 11.977zM738.221 840.417c0-32.947-12.417-61.086-37.371-84.222-24.889-23.219-54.882-34.838-89.967-34.838-35.196 0-65.261 11.619-90.435 34.838-25.128 23.146-37.72 51.275-37.72 84.222 0 32.883 12.592 61.067 37.72 84.497 25.128 23.393 55.249 35.086 90.435 35.086 35.076 0 65.078-11.72 89.967-35.086 24.972-23.43 37.371-51.624 37.371-84.497z" />
<glyph unicode="&#xe903;" glyph-name="needle" d="M972.209 772.765c19.936 19.4 30.892 45.405 30.846 73.224-0.048 27.819-11.089 53.787-31.092 73.123-20.003 19.333-46.327 29.503-74.136 28.589-27.805-0.898-53.423-12.73-72.135-33.315l-9.432-10.376-9.496 9.496c-29.971 29.982-69.827 46.494-112.226 46.494s-82.255-16.512-112.221-46.492c-29.973-29.973-46.478-69.827-46.478-112.221 0-42.41 16.507-82.271 46.478-112.244l20.184-20.186-40.686-44.757c-57.067-62.777-113.376-126.649-168.821-191.416l-56.634 56.634c-28.029 28.029-65.296 43.466-104.932 43.466s-76.903-15.437-104.932-43.466c-28.023-28.023-43.455-65.287-43.455-104.932 0-39.659 15.432-76.933 43.455-104.955l76.55-76.552c-60.599-75.924-119.879-152.754-177.565-230.277-6.878-9.244-5.826-22.157 2.459-30.163 4.421-4.272 10.168-6.441 15.934-6.441 5.040 0 10.096 1.655 14.296 5.008 75.035 59.9 149.325 121.348 222.682 184.068l71.734-71.734c4.476-4.476 10.342-6.713 16.207-6.713s11.733 2.237 16.207 6.713c8.95 8.95 8.95 23.464 0 32.416l-69.284 69.284c51.825 44.789 103.151 90.208 153.89 136.203l85.963-85.963c38.415-38.412 89.493-59.568 143.828-59.568s105.414 21.153 143.826 59.566c38.431 38.417 59.593 89.498 59.593 143.831 0 54.335-21.162 105.414-59.591 143.828l-78.207 78.207 159.721 155.426c7.793-13.344 11.967-28.564 11.967-44.427 0-23.592-9.187-45.772-25.873-62.458l-7.367-7.369c-8.95-8.95-8.948-23.464 0.002-32.414 4.476-4.474 10.339-6.711 16.205-6.711s11.733 2.239 16.209 6.716l7.364 7.367c25.341 25.341 39.297 59.032 39.297 94.87 0 27.97-8.536 54.613-24.316 77.017l13.979 13.606zM614.732 721.457c-21.314 21.314-33.054 49.664-33.054 79.83 0 30.15 11.74 58.493 33.056 79.809 21.311 21.321 49.653 33.063 79.805 33.063s58.493-11.742 79.807-33.065l11.043-11.043-152.018-167.232-18.639 18.639zM595.735 593.265l222.104 244.332 22.098-22.098-46.513-48.119c-8.797-9.102-8.549-23.613 0.552-32.41 4.449-4.3 10.19-6.441 15.927-6.441 5.996 0 11.985 2.34 16.482 6.991l95.152 98.443c8.797 9.102 8.549 23.613-0.552 32.41s-23.613 8.549-32.41-0.55l-16.778-17.358-23.090 23.090 10.901 11.992c10.298 11.327 24.394 17.837 39.696 18.332 0.623 0.021 1.247 0.030 1.868 0.030 14.607 0 28.369-5.556 38.926-15.76 11.009-10.64 17.085-24.931 17.11-40.239s-6.003-29.618-16.975-40.294l-281.145-273.588c-61.585-59.928-124.321-119.111-188.005-177.43l-45.575 45.575c55.892 65.342 112.67 129.776 170.226 193.091zM158.91 311.848c-19.363 19.363-30.028 45.126-30.028 72.539 0 27.401 10.665 53.155 30.030 72.518 19.37 19.372 45.126 30.040 72.518 30.040s53.148-10.667 72.518-30.040l59.245-59.245c-44.374-52.396-88.154-105.363-131.282-158.814l-73.002 73.002zM180.059 99.822c70.027 89.75 142.031 178.314 215.65 265.321l41.447-41.447c-84.214-76.3-170.033-151.051-257.097-223.874zM810.814 460.524c29.767-29.758 46.162-69.325 46.162-111.412s-16.393-81.654-46.164-111.412c-29.755-29.755-69.325-46.141-111.414-46.141s-81.659 16.386-111.414 46.141l-84.448 84.448c63.517 58.195 126.090 117.247 187.524 177.029l41.103 39.999 78.652-78.652z" />
<glyph unicode="&#xe904;" glyph-name="placeholder-filled-point" d="M511.984 960c-207.854 0-376.975-169.121-376.975-376.996 0-54.222 11.098-105.991 32.969-153.883 94.254-206.25 274.966-424.007 328.118-485.827 3.982-4.622 9.788-7.283 15.898-7.283s11.915 2.662 15.898 7.283c53.132 61.809 233.843 279.556 328.129 485.827 21.882 47.892 32.969 99.662 32.969 153.883-0.021 207.875-169.142 376.996-377.006 376.996zM511.984 387.192c-107.972 0-195.823 87.851-195.823 195.823 0 107.983 87.851 195.834 195.823 195.834s195.823-87.851 195.823-195.834c0.010-107.972-87.841-195.823-195.823-195.823z" />
<glyph unicode="&#xe905;" glyph-name="gps" d="M605.747 550.4h34.133c9.438 0 17.067 7.629 17.067 17.067s-7.629 17.067-17.067 17.067h-34.133c-9.438 0-17.067-7.629-17.067-17.067s7.629-17.067 17.067-17.067zM546.048 430.933c-7.39 0.017-14.575 1.331-21.367 3.925-8.738 3.328-18.654-1.058-22.033-9.865-3.345-8.806 1.075-18.671 9.865-22.033 10.684-4.062 21.931-6.144 33.502-6.161h6.093c9.438 0 17.067 7.629 17.067 17.067s-7.629 17.067-17.067 17.067h-6.059zM505.532 538.863c3.089 0 6.195 0.836 9.011 2.577 7.561 4.71 15.923 7.595 24.815 8.585 9.37 1.041 16.128 9.472 15.104 18.842s-9.404 16.060-18.842 15.104c-14.029-1.553-27.204-6.093-39.151-13.551-8.004-4.983-10.428-15.514-5.444-23.518 3.243-5.188 8.806-8.038 14.507-8.038zM614.281 277.333c-1.468 0-2.918-0.034-4.369-0.102-9.421-0.375-16.725-8.329-16.35-17.749 0.358-9.182 7.936-16.367 17.033-16.367 0.239 0 0.478 0 0.717 0.017l33.434 0.068c9.438 0 17.067 7.629 17.067 17.067s-7.629 17.067-17.067 17.067h-30.464zM742.281 550.4c9.438 0 17.067 7.629 17.067 17.067s-7.629 17.067-17.067 17.067h-34.133c-9.438 0-17.067-7.629-17.067-17.067s7.629-17.067 17.067-17.067h34.133zM815.411 277.333c-9.438 0-17.067-7.629-17.067-17.067s7.629-17.067 17.067-17.067h34.133c9.438 0 17.067 7.629 17.067 17.067s-7.629 17.067-17.067 17.067h-34.133zM876.39 413.867c0 9.438-7.629 17.067-17.067 17.067h-34.133c-9.438 0-17.067-7.629-17.067-17.067s7.629-17.067 17.067-17.067h34.133c9.421 0 17.067 7.629 17.067 17.067zM713.011 243.2h34.133c9.438 0 17.067 7.629 17.067 17.067s-7.629 17.067-17.067 17.067h-34.133c-9.438 0-17.067-7.629-17.067-17.067s7.646-17.067 17.067-17.067zM773.99 413.867c0 9.438-7.629 17.067-17.067 17.067h-34.133c-9.438 0-17.067-7.629-17.067-17.067s7.629-17.067 17.067-17.067h34.133c9.421 0 17.067 7.629 17.067 17.067zM620.39 430.933c-9.438 0-17.067-7.629-17.067-17.067s7.629-17.067 17.067-17.067h34.133c9.438 0 17.067 7.629 17.067 17.067s-7.629 17.067-17.067 17.067h-34.133zM410.692-29.867h-34.133c-9.438 0-17.067-7.629-17.067-17.067s7.629-17.067 17.067-17.067h34.133c9.438 0 17.067 7.629 17.067 17.067s-7.646 17.067-17.067 17.067zM308.292-29.867h-34.133c-9.438 0-17.067-7.629-17.067-17.067s7.629-17.067 17.067-17.067h34.133c9.438 0 17.067 7.629 17.067 17.067s-7.646 17.067-17.067 17.067zM897.775 29.577c-9.199 2.065-18.33-3.703-20.395-12.902-1.963-8.704-5.769-16.708-11.315-23.757-5.82-7.407-4.557-18.142 2.867-23.962 3.14-2.458 6.844-3.652 10.53-3.652 5.069 0 10.069 2.236 13.431 6.519 8.602 10.923 14.746 23.825 17.783 37.342 2.065 9.216-3.703 18.347-12.902 20.412zM879.462 60.262c3.686 0 7.424 1.195 10.53 3.652 7.424 5.837 8.687 16.572 2.867 23.962-8.585 10.906-19.661 19.917-32.068 26.078-8.482 4.215-18.688 0.751-22.886-7.68-4.198-8.448-0.751-18.688 7.68-22.886 7.902-3.908 14.967-9.66 20.429-16.623 3.379-4.267 8.38-6.502 13.449-6.502zM803.243 106.667c0 9.438-7.629 17.067-17.067 17.067h-34.133c-9.438 0-17.067-7.629-17.067-17.067s7.629-17.067 17.067-17.067h34.133c9.421 0 17.067 7.629 17.067 17.067zM819.081-29.867h-32.939c-9.438 0-17.067-7.629-17.067-17.067s7.629-17.067 17.067-17.067l33.638 0.017 0.495 17.067v-17.067c9.438 0 16.469 7.629 16.469 17.067 0 9.421-8.226 17.050-17.664 17.050zM1014.204 351.881c-1.502 9.318-10.291 15.684-19.558 14.148-9.318-1.485-15.65-10.257-14.148-19.558 0.478-3.038 0.751-6.127 0.717-9.421 0-5.734-0.819-11.401-2.423-16.862-2.645-9.045 2.526-18.534 11.588-21.18 1.604-0.461 3.209-0.683 4.796-0.683 7.39 0 14.199 4.813 16.384 12.271 2.509 8.585 3.789 17.476 3.789 26.334 0.034 4.915-0.341 9.95-1.143 14.95zM478.362 450.475c8.943 2.953 13.824 12.595 10.889 21.555-1.963 5.99-2.97 12.254-2.97 18.569 0.017 2.577 0.171 5.154 0.478 7.663 1.178 9.353-5.444 17.903-14.797 19.063-9.643 1.075-17.903-5.478-19.063-14.797-0.478-3.857-0.734-7.782-0.751-11.844 0-10.035 1.57-19.9 4.659-29.321 2.372-7.185 9.045-11.742 16.213-11.742 1.775 0 3.584 0.256 5.342 0.853zM968.465 418.338c-12.186 7.066-25.498 11.213-39.543 12.322-9.37 0.683-17.613-6.263-18.347-15.684-0.734-9.404 6.281-17.613 15.684-18.347 8.909-0.7 17.357-3.328 25.088-7.817 2.697-1.57 5.649-2.304 8.55-2.304 5.888 0 11.622 3.055 14.78 8.499 4.727 8.141 1.946 18.586-6.212 23.33zM944.555 281.958c-7.322-3.072-15.070-4.625-23.074-4.625h-3.669c-9.438 0-17.067-7.629-17.067-17.067s7.629-17.067 17.067-17.067h3.669c12.561 0 24.764 2.458 36.267 7.287 8.704 3.652 12.783 13.653 9.131 22.34-3.635 8.687-13.705 12.783-22.323 9.131zM555.605 194.748c1.69 8.772 5.239 16.879 10.564 24.115 5.581 7.578 3.959 18.261-3.635 23.859-7.595 5.564-18.261 3.959-23.859-3.635-8.346-11.366-13.943-24.115-16.606-37.922-1.775-9.25 4.284-18.193 13.551-19.985 1.075-0.205 2.167-0.307 3.226-0.307 8.021 0.034 15.172 5.717 16.759 13.875zM582.349 96.529c6.485 0 12.663 3.703 15.531 9.967 3.908 8.585 0.154 18.705-8.414 22.613-8.004 3.669-15.258 9.182-20.958 15.974-6.076 7.219-16.828 8.158-24.047 2.082-7.219-6.059-8.158-16.828-2.082-24.047 8.943-10.633 20.309-19.302 32.887-25.037 2.304-1.041 4.71-1.553 7.083-1.553zM513.092-29.867h-34.133c-9.438 0-17.067-7.629-17.067-17.067s7.629-17.067 17.067-17.067h34.133c9.438 0 17.067 7.629 17.067 17.067s-7.646 17.067-17.067 17.067zM615.492-29.867h-34.133c-9.438 0-17.067-7.629-17.067-17.067s7.629-17.067 17.067-17.067h34.133c9.438 0 17.067 7.629 17.067 17.067s-7.646 17.067-17.067 17.067zM700.843 106.667c0 9.438-7.629 17.067-17.067 17.067h-34.133c-9.438 0-17.067-7.629-17.067-17.067s7.629-17.067 17.067-17.067h34.133c9.421 0 17.067 7.629 17.067 17.067zM717.892-29.867h-34.133c-9.438 0-17.067-7.629-17.067-17.067s7.629-17.067 17.067-17.067h34.133c9.438 0 17.067 7.629 17.067 17.067s-7.646 17.067-17.067 17.067zM358.758 465.459c-38.758 43.776-90.436 67.874-145.545 67.874s-106.786-24.098-145.527-67.874c-78.711-88.934-78.711-233.609 0-322.543l145.527-164.403 145.527 164.403c78.729 88.934 78.729 233.609 0.017 322.543zM213.214 226.133c-56.474 0-102.4 45.926-102.4 102.4s45.926 102.4 102.4 102.4 102.4-45.926 102.4-102.4-45.926-102.4-102.4-102.4zM831.949 541.747l110.319 124.348c59.358 66.901 59.358 175.718 0 242.62-29.355 33.075-68.54 51.285-110.336 51.285-41.779 0-80.964-18.21-110.319-51.285-59.341-66.901-59.341-175.718 0-242.62l110.336-124.348zM836.147 891.733c51.746 0 93.867-42.121 93.867-93.867s-42.121-93.867-93.867-93.867-93.867 42.121-93.867 93.867 42.121 93.867 93.867 93.867z" />
<glyph unicode="&#xe906;" d="M744.482 74.107l5.223 4.597c0.836 0.627 1.463 1.254 2.089 2.089 2.716 3.134 63.726 73.546 86.918 127.66h11.074c31.549 0 57.249 25.699 57.249 57.249v90.47c0 31.549-25.699 57.249-57.249 57.249h-12.327c-19.013 49.518-51.398 94.231-94.44 130.586-6.268 22.356-1.671 46.175 13.999 71.039 8.775 13.999 8.775 31.549-0.209 45.548s-24.655 21.521-41.161 19.431c-60.383-7.522-96.529-34.892-117.632-60.383-19.849 5.432-40.325 9.611-61.010 11.909-11.283 1.254-21.729-6.686-22.983-18.178-1.254-11.283 6.686-21.729 18.178-22.983 22.983-2.716 45.757-7.731 67.487-14.626 8.775-2.716 18.178 0.627 23.401 8.149 14.208 21.103 42.832 47.847 97.574 54.741 0.418 0 0.836 0 1.254-0.627s0.209-1.045 0-1.254c-21.729-34.684-28.206-70.83-18.595-104.677 0.209-6.059 2.925-11.7 7.731-15.461 44.086-35.519 76.053-80.65 92.35-130.586 2.716-8.566 10.865-14.208 19.64-14.208v0h26.744c8.775 0 15.879-7.104 15.879-15.879v-90.47c0-8.775-7.104-15.879-15.879-15.879h-25.281c-8.984 0-17.133-5.85-19.849-14.626-11.7-38.235-63.099-103.006-83.157-126.198l-4.597-3.97c-43.041-38.862-47.429-84.828-47.638-98.618v-29.042h-119.303v27.998c0 5.85-2.507 11.492-6.895 15.461s-10.238 5.85-16.088 5.223c-30.505-3.134-61.219-2.716-90.888 1.254-5.85 0.836-11.909-1.045-16.297-5.014-4.597-3.97-7.104-9.611-7.104-15.67v-29.042h-119.303v8.149c0 0.209 0 0.627 0 0.836-1.045 21.938-7.94 77.516-51.398 122.228-20.476 21.103-38.862 49.1-54.741 82.948-0.209 0.209-0.209 0.418-0.418 0.836-9.402 17.969-16.506 36.982-21.312 57.040l-0.209 0.836c0 0.209-0.209 0.418-0.209 0.627-7.522 25.072-6.686 56.622-6.686 56.831s0 0.418 0 0.627c0 13.79 1.254 27.789 3.343 41.37 1.88 11.283-5.641 21.938-16.924 23.819s-21.938-5.641-23.819-16.924c-2.716-15.67-3.97-31.758-3.97-47.847-0.209-4.179-0.627-39.28 8.357-69.576v0c5.432-22.356 13.79-44.295 24.446-65.188 17.551-38.027 38.653-69.576 62.263-94.022 33.221-34.266 38.862-77.307 39.698-94.857v-8.566c0-0.836 0-1.463 0.209-2.716 1.463-21.103 19.222-37.818 40.325-37.818h120.974c22.356 0 40.534 18.178 40.534 40.534v6.895c18.178-1.463 36.146-1.671 54.533-0.836v-6.059c0-22.356 18.178-40.534 40.534-40.534h120.974c22.356 0 40.534 18.178 40.534 40.534v29.46c0.418 6.477 2.716 39.907 34.057 68.113z" />
<glyph unicode="&#xe907;" d="M118.716 560.095c0-93.813 76.262-170.284 170.284-170.284 93.813 0 170.284 76.262 170.284 170.284 0 93.813-76.262 170.284-170.284 170.284-93.813 0-170.284-76.262-170.284-170.284zM417.914 560.095c0-71.039-57.876-128.914-128.914-128.914s-128.914 57.876-128.914 128.914 57.876 128.914 128.914 128.914 128.914-57.876 128.914-128.914z" />
<glyph unicode="&#xe908;" d="M602.196 841.324c0 65.397-53.279 118.676-118.676 118.676s-118.676-53.279-118.676-118.676 53.279-118.676 118.676-118.676 118.676 53.279 118.676 118.676zM406.004 841.324c0 42.623 34.684 77.307 77.307 77.307s77.307-34.684 77.307-77.307-34.684-77.307-77.307-77.307-77.307 34.684-77.307 77.307z" />
<glyph unicode="&#xe909;" glyph-name="tag" d="M276.196 70.603c30.7-30.7 80.535-30.7 111.235 0l380.808 380.808c10.934 10.934 19.345 23.971 24.812 37.849 38.27-10.724 75.489-16.401 108.291-16.191 81.166 0.421 108.081 35.957 116.913 57.195 8.832 21.027 15.14 65.185-41.845 123.221-0.631 0.631-1.262 1.262-1.892 1.892-35.326 35.326-86.633 67.919-144.879 92.1-10.724 4.416-21.448 8.411-31.962 12.196v0.631c-0.631 46.681-38.27 84.32-84.951 84.951l-228.148 3.154c-30.28 0.421-59.297-11.355-80.535-32.803l-381.018-380.808c-30.7-30.7-30.7-80.535 0-111.235l253.171-252.96zM569.739 712.151c25.443 25.443 66.657 25.443 92.1 0 15.14-15.14 21.238-35.957 18.294-55.513 25.023-17.663 54.882-34.065 86.843-47.312 11.355-4.626 22.289-8.832 32.803-12.406l-1.262 91.68c1.892-0.841 3.575-1.472 5.467-2.313 49.835-20.817 94.624-48.994 123.431-77.802 0.421-0.421 0.841-0.841 1.262-1.262 27.336-27.967 30.28-45.84 27.967-51.307-7.149-17.032-83.9-32.172-200.392 16.401-34.065 14.299-66.026 31.962-91.89 51.097-0.841-1.051-1.892-2.103-2.734-3.154-25.443-25.443-66.657-25.443-92.1 0-25.233 25.233-25.233 66.447 0.21 91.89z" />
<glyph unicode="&#xe90a;" glyph-name="logistics-delivery-truck-in-movement" d="M379.422 331.963c-47.266 0-85.464-38.333-85.464-85.601 0-47.127 38.198-85.464 85.464-85.464s85.464 38.336 85.464 85.464c-0.002 47.268-38.198 85.601-85.464 85.601zM379.422 203.63c-23.634 0-42.734 19.238-42.734 42.735 0 23.631 19.1 42.732 42.734 42.732 23.632 0 42.732-19.101 42.732-42.732-0.002-23.497-19.1-42.735-42.732-42.735zM1024 395.192v-91.258c0-22.764-18.454-41.219-41.221-41.219h-44.106c-7.969 54.687-55.097 96.731-111.982 96.731-56.745 0-103.876-42.046-111.845-96.731h-223.552c-7.969 54.687-55.099 96.731-111.845 96.731s-103.876-42.046-111.844-96.731h-55.236c-22.766 0-41.219 18.454-41.219 41.219v91.258h852.85zM826.801 331.963c-47.266 0-85.601-38.333-85.601-85.601 0-47.127 38.336-85.464 85.601-85.464 47.127 0 85.462 38.336 85.462 85.464 0 47.268-38.335 85.601-85.462 85.601zM826.801 203.63c-23.634 0-42.732 19.238-42.732 42.735 0 23.631 19.098 42.732 42.732 42.732 23.495 0 42.732-19.101 42.732-42.732 0-23.497-19.237-42.735-42.732-42.735zM1007.758 487.091l-161.994 160.211c-10.305 10.168-24.183 15.939-38.611 15.939h-81.753v30.641c0 22.807-18.412 41.219-41.219 41.219h-471.84c-22.672 0-41.219-18.414-41.219-41.219v-6.459l-167.273-19.279 296.401-38.597-300.25-29.827 299.192-42.538-299.192-25.941 171.132-32.276-0.012-80.988h852.851v30.093c0 14.702-5.908 28.716-16.213 39.021zM937.134 481.733h-156.774c-3.572 0-6.459 2.885-6.459 6.457v121.051c0 3.572 2.886 6.459 6.459 6.459h29.816c1.648 0 3.298-0.688 4.534-1.787l126.822-121.051c4.257-3.984 1.37-11.128-4.399-11.128z" />
<glyph unicode="&#xe90b;" glyph-name="sand-clock" d="M842.655-22.736h-73.841v216.093c0 59.724-20.632 115.105-55.381 159.627-32.577 40.178-77.099 71.669-127.050 86.872v16.288c51.037 15.203 95.559 46.694 127.050 86.872 34.749 43.436 55.381 99.902 55.381 159.627v215.007h73.841c10.859 0 20.632 8.687 20.632 20.632 0 10.859-8.687 20.632-20.632 20.632h-89.043c-1.086 0-3.258 1.086-4.344 1.086h-473.451c0 0 0 0-1.086 0h-93.387c-10.859 0-20.632-8.687-20.632-20.632 0-10.859 8.687-20.632 20.632-20.632h73.841v-216.093c0-59.724 20.632-115.105 55.381-159.627 32.577-40.178 77.099-71.669 127.050-86.872v-16.288c-49.951-16.288-94.473-46.694-127.050-86.872-34.749-43.436-55.381-99.902-55.381-159.627v-216.093h-73.841c-10.859 0-20.632-8.687-20.632-20.632 0-10.859 8.687-20.632 20.632-20.632h90.129c1.086 0 3.258 0 4.344 0h566.838c10.859 0 20.632 8.687 20.632 20.632 0 10.859-8.687 20.632-20.632 20.632zM296.45 193.357c0 51.037 17.374 97.731 46.694 134.651 29.319 38.006 71.669 65.154 119.449 76.013 9.773 2.172 16.288 9.773 16.288 19.546v47.779c0 9.773-6.515 17.374-16.288 19.546-47.779 10.859-90.129 39.092-120.534 77.099-29.319 36.92-46.694 83.614-46.694 134.651v216.093h433.273v-216.093c0-51.037-17.374-97.731-46.694-134.651-29.319-38.006-71.669-65.154-119.449-76.013-9.773-2.172-16.288-9.773-16.288-19.546v-47.779c0-9.773 6.515-17.374 16.288-19.546 47.779-10.859 90.129-39.092 120.534-77.099 21.718-28.233 38.006-61.896 43.436-98.817-10.859 9.773-22.804 18.46-35.835 26.062-30.405 17.374-66.24 28.233-104.246 28.233-57.552 0-109.676-23.89-147.682-60.81-34.749-34.749-57.552-81.442-60.81-133.565-10.859 3.258-22.804 5.429-34.749 5.429-16.288 0-31.491-3.258-44.522-9.773-1.086 0-2.172-1.086-2.172-1.086v109.676zM728.636-11.877v-14.117h-112.933l-319.253 3.258v57.552c5.429 4.344 11.945 8.687 18.46 11.945 8.687 3.258 18.46 5.429 29.319 5.429 7.601 0 15.203-1.086 22.804-3.258s14.117-6.515 20.632-10.859c4.344-3.258 8.687-4.344 14.117-4.344 10.859 1.086 19.546 10.859 18.46 21.718 0 3.258 0 5.429-1.086 8.687 0 2.172 0 5.429 0 8.687 0 46.694 18.46 87.958 48.865 118.363s72.755 48.865 118.363 48.865c30.405 0 59.724-8.687 83.614-22.804s44.522-33.663 58.638-57.552v-171.572z" />
<glyph unicode="&#xe90c;" glyph-name="telephone" d="M778.514 282.604c-33.454 33.028-75.219 33.028-108.46 0-25.357-25.144-50.714-50.288-75.645-75.858-6.819-7.032-12.572-8.523-20.882-3.836-16.408 8.95-33.88 16.194-49.649 25.996-73.514 46.239-135.096 105.69-189.645 172.599-27.062 33.241-51.14 68.826-67.974 108.886-3.409 8.097-2.77 13.424 3.836 20.030 25.357 24.505 50.075 49.649 75.006 74.793 34.733 34.946 34.733 75.858-0.213 111.017-19.817 20.030-39.634 39.634-59.451 59.664-20.456 20.456-40.699 41.125-61.368 61.368-33.454 32.602-75.219 32.602-108.46-0.213-25.57-25.144-50.075-50.927-76.071-75.645-24.079-22.8-36.224-50.714-38.781-83.316-4.049-53.058 8.95-103.133 27.275-151.929 37.503-101.002 94.61-190.711 163.862-272.962 93.544-111.23 205.201-199.234 335.822-262.733 58.811-28.553 119.754-50.501 186.023-54.124 45.6-2.557 85.234 8.95 116.984 44.535 21.735 24.292 46.239 46.452 69.253 69.679 34.094 34.52 34.307 76.284 0.426 110.378-40.486 40.699-81.185 81.185-121.884 121.671zM737.814 452.432l78.628 13.424c-12.359 72.236-46.452 137.653-98.232 189.645-54.763 54.763-124.015 89.283-200.3 99.937l-11.080-79.054c59.024-8.31 112.722-34.946 155.126-77.35 40.060-40.060 66.269-90.774 75.858-146.602zM860.764 794.22c-90.774 90.774-205.627 148.094-332.412 165.78l-11.080-79.054c109.526-15.342 208.823-64.991 287.238-143.193 74.367-74.367 123.163-168.337 140.849-271.683l78.628 13.424c-20.669 119.754-77.137 228.427-163.223 314.726z" />
<glyph unicode="&#xe90d;" glyph-name="animal" d="M659.586 524.055v222.487c0 0.004 0 0.007 0 0.011v27.826c0 102.352-83.269 185.621-185.621 185.621-60.407 0-109.55-49.145-109.55-109.553v-643.353c0-49.17 25.312-73.482 67.248-113.763 7.46-7.166 15.795-15.189 24.725-24.020v-71.777c0-0.004 0-0.007 0-0.011v-43.944c0-9.708 7.871-17.579 17.579-17.579s17.579 7.871 17.579 17.579v36.666c51.338 51.301 114.996 114.38 115.653 115.035 6.898 6.834 6.948 17.964 0.114 24.859s-17.964 6.946-24.859 0.114c-0.556-0.549-45.898-45.482-90.907-90.341v29.439c51.338 51.301 114.996 114.38 115.653 115.035 6.898 6.834 6.948 17.964 0.114 24.859s-17.964 6.946-24.859 0.114c-0.556-0.549-45.898-45.482-90.907-90.341v29.419c18.061 17.949 34.763 34.003 49.638 48.288 76.347 73.335 118.402 113.728 118.402 197.373v129.945c0 0.002 0 0.007 0 0.009zM624.427 774.379v-20.55l-56.902-56.9c-6.867-6.865-6.867-17.995 0-24.859 3.432-3.435 7.931-5.149 12.431-5.149 4.498 0 8.998 1.716 12.431 5.149l32.041 32.041v-172.777l-132.883-132.88v172.775l56.9 56.898c6.867 6.865 6.867 17.995 0 24.859-6.863 6.867-17.993 6.865-24.859 0l-32.038-32.038v302.834c74.706-8.737 132.88-72.385 132.88-149.401zM456.016 118.687c-39.921 38.345-56.445 54.215-56.445 88.407v643.353c0 34.963 24.253 64.356 56.812 72.278v-344.211c0-0.004 0-0.007 0-0.011v-222.487c0-0.004 0-0.007 0-0.011v-200.258c0-0.004 0-0.007 0-0.011v-37.405c-0.119 0.119-0.246 0.24-0.367 0.356zM516.828 222.085c-7.931-7.618-16.384-15.738-25.284-24.378v151.022l132.883 132.88v-87.51c0-68.663-33.719-101.051-107.599-172.014z" />
<glyph unicode="&#xe90e;" glyph-name="rug" d="M826.619 70.611v754.778c0 9.124-7.393 16.516-16.516 16.516h-375.991c-9.124 0-16.516-7.393-16.516-16.516s7.393-16.516 16.516-16.516h359.475v-721.746h-563.174v721.746h137.634c9.124 0 16.516 7.393 16.516 16.516s-7.393 16.516-16.516 16.516h-154.151c-9.124 0-16.516-7.393-16.516-16.516v-754.778c0-9.124 7.393-16.516 16.516-16.516h596.206c9.124 0 16.516 7.393 16.516 16.516zM677.974 292.306c9.124 0 16.516 7.393 16.516 16.516v384.438c0 9.124-7.393 16.516-16.516 16.516h-331.948c-9.124 0-16.516-7.393-16.516-16.516v-490.52c0-9.124 7.393-16.516 16.516-16.516h331.948c9.124 0 16.516 7.393 16.516 16.516v40.017c0 9.124-7.393 16.516-16.516 16.516s-16.516-7.393-16.516-16.516v-23.501h-298.916v457.488h298.916v-367.922c0-9.124 7.395-16.516 16.516-16.516zM876.167 960c-9.124 0-16.516-7.393-16.516-16.516v-35.514h-71.015v35.514c0 9.124-7.393 16.516-16.516 16.516s-16.516-7.393-16.516-16.516v-35.514h-71.017v35.514c0 9.124-7.393 16.516-16.516 16.516s-16.516-7.393-16.516-16.516v-35.514h-71.015v35.514c0 9.124-7.393 16.516-16.516 16.516s-16.516-7.393-16.516-16.516v-35.514h-71.015v35.514c0 9.124-7.393 16.516-16.516 16.516s-16.516-7.393-16.516-16.516v-35.514h-71.015v35.514c0 9.124-7.393 16.516-16.516 16.516s-16.516-7.393-16.516-16.516v-35.514h-71.017v35.514c0 9.124-7.393 16.516-16.516 16.516s-16.516-7.393-16.516-16.516v-35.514h-71.015v35.514c0 9.124-7.393 16.516-16.516 16.516s-16.516-7.393-16.516-16.516v-990.968c0-9.124 7.393-16.516 16.516-16.516s16.516 7.393 16.516 16.516v35.514h71.015v-35.514c0-9.124 7.393-16.516 16.516-16.516s16.516 7.393 16.516 16.516v35.514h71.017v-35.514c0-9.124 7.393-16.516 16.516-16.516s16.516 7.393 16.516 16.516v35.514h71.015v-35.514c0-9.124 7.393-16.516 16.516-16.516s16.516 7.393 16.516 16.516v35.514h71.015v-35.514c0-9.124 7.393-16.516 16.516-16.516s16.516 7.393 16.516 16.516v35.514h71.015v-35.514c0-9.124 7.393-16.516 16.516-16.516s16.516 7.393 16.516 16.516v35.514h71.017v-35.514c0-9.124 7.393-16.516 16.516-16.516s16.516 7.393 16.516 16.516v35.514h71.015v-35.514c0-9.124 7.393-16.516 16.516-16.516s16.516 7.393 16.516 16.516v990.968c0 9.124-7.393 16.516-16.516 16.516zM164.349 874.938h695.303v-853.875h-695.303v853.875z" />
<glyph unicode="&#xe90f;" glyph-name="paint-1" d="M853.334 669.866v238.934c0 29.014-22.186 51.2-51.2 51.2h-580.268c-29.014 0-51.2-22.186-51.2-51.2v-238.934c-10.24 0-17.066-6.826-17.066-17.066v-153.6c0-10.24 6.826-17.066 17.066-17.066v-68.266c0-75.094 61.44-136.534 136.534-136.534h81.92c-11.946-69.974-13.654-141.654-13.654-203.094 0-75.094 59.734-136.534 133.12-138.24 0 0 1.706 0 3.414 0s3.414 0 3.414 0c73.386 0 133.12 63.146 133.12 138.24 0 63.146-1.706 133.12-13.654 203.094h81.92c75.094 0 136.534 61.44 136.534 136.534v68.266c10.24 0 17.066 6.826 17.066 17.066v153.6c0 10.24-6.826 17.066-17.066 17.066zM187.734 635.734h648.534v-119.466h-648.534v119.466zM204.8 908.8c0 8.534 8.534 17.066 17.066 17.066h34.134v-153.6c0-10.24 6.826-17.066 17.066-17.066s17.066 6.826 17.066 17.066v153.6h34.134v-204.8c0-10.24 6.826-17.066 17.066-17.066s17.066 6.826 17.066 17.066v204.8h34.134v-153.6c0-10.24 6.826-17.066 17.066-17.066s17.066 6.826 17.066 17.066v153.6h34.136v-204.8c0-10.24 6.826-17.066 17.066-17.066s17.066 6.826 17.066 17.066v204.8h34.134v-153.6c0-10.24 6.826-17.066 17.066-17.066s17.066 6.826 17.066 17.066v153.6h34.134v-204.8c0-10.24 6.826-17.066 17.066-17.066s17.066 6.826 17.066 17.066v204.8h34.136v-153.6c0-10.24 6.826-17.066 17.066-17.066s17.066 6.826 17.066 17.066v153.6h34.134v-204.8c0-10.24 6.826-17.066 17.066-17.066s17.066 6.826 17.066 17.066v204.8h34.134c10.24 0 17.066-6.826 17.066-17.066v-238.934h-614.398v238.934zM817.494 413.866c0-56.32-46.080-102.4-102.4-102.4h-102.4c-5.12 0-10.24-3.414-13.654-6.826-3.414-3.414-5.12-8.534-3.414-13.654 13.654-73.386 17.066-150.186 17.066-216.746 1.706-56.32-44.374-102.4-98.986-104.106 0 0-3.414 0-5.12 0-54.614 0-98.986 47.786-98.986 104.106 0 66.56 3.414 143.36 17.066 216.746 1.706 5.12 0 10.24-3.414 13.654-3.414 5.12-8.534 6.826-13.654 6.826h-102.4c-30.152 0-57.36 13.218-76.142 34.134h24.944c10.24 0 17.066 6.826 17.066 17.066s-6.826 17.066-17.066 17.066h-45.294c-3.81 10.69-5.906 22.178-5.906 34.134h85.334c10.24 0 17.066 6.826 17.066 17.066s-6.826 17.068-17.066 17.068h-85.334v34.134h612.694v-68.268zM512 38.4c37.546 0 68.266 30.72 68.266 68.266s-30.72 68.266-68.266 68.266-68.266-30.72-68.266-68.266 30.72-68.266 68.266-68.266zM512 140.8c18.774 0 34.134-15.36 34.134-34.134s-15.36-34.134-34.134-34.134c-18.774 0-34.134 15.36-34.134 34.134s15.36 34.134 34.134 34.134z" />
<glyph unicode="&#xe910;" glyph-name="leather" d="M933.899 641.44c5.124 3.417 6.832 10.249 5.124 15.373v1.707c-11.956 58.076-44.411 109.319-92.237 145.189-5.124 3.417-10.249 5.124-17.080 1.707-59.784-20.497-107.61-20.497-145.187 1.707-59.784 35.87-70.032 121.275-70.032 121.275 0 6.832-5.124 11.956-11.956 13.665-58.074 23.914-122.983 23.914-182.766 0-5.124-1.707-10.249-6.832-10.249-13.665 0 0-10.249-83.696-70.032-121.275-37.577-23.914-87.113-23.914-146.897-1.707-5.124 3.417-10.249 1.707-15.373-1.707-47.826-35.87-80.279-87.113-92.237-145.187v-1.707c0-5.124 1.707-11.956 5.124-15.373 51.243-51.243 80.281-128.107 80.281-210.095s-29.038-158.852-80.281-210.095c-5.124-3.417-6.832-10.249-5.124-15.373v-1.707c11.956-58.074 44.411-109.317 92.237-145.187 5.124-3.417 10.249-5.124 15.373-3.417 10.249 3.417 225.468 76.864 304.040-109.317 1.707-6.832 8.541-10.249 15.373-10.249s13.665 3.417 15.373 11.956c80.281 184.474 295.5 112.734 304.040 109.317 5.124-3.417 10.249-1.707 15.373 1.707 47.826 35.87 80.281 87.113 92.237 145.187v1.707c0 5.124-1.707 11.956-5.124 15.373-105.9 105.902-105.9 314.29 0.002 420.19zM833.121 93.143c-44.411 11.956-230.592 54.66-321.122-100.778-54.66 92.237-143.48 114.441-215.219 114.441-47.826 0-88.82-10.249-105.902-15.373-34.162 29.038-59.784 68.323-70.032 112.734 52.95 56.367 83.696 138.355 83.696 227.175s-30.746 170.808-83.696 228.885c10.249 44.411 35.87 83.696 70.032 112.734 66.616-22.205 122.983-20.497 167.394 6.832 59.784 37.581 78.574 109.321 83.698 136.65 46.118 15.373 93.944 15.373 140.063 0 5.124-27.329 23.914-99.069 83.696-136.648 44.411-27.329 100.778-29.038 167.394-6.832 35.87-29.038 59.784-68.323 70.032-112.734-111.027-119.566-111.027-334.785 0-454.353-10.249-44.409-34.162-83.696-70.032-112.734zM534.206 115.35c-6.832-6.832-15.373-11.956-22.205-18.79-6.832 6.832-15.373 13.665-22.205 18.79-8.541 5.124-18.79 3.417-23.914-3.417-5.124-6.832-3.417-18.79 3.417-23.914 11.956-6.832 20.497-15.373 30.746-25.621 3.417-3.417 6.832-5.124 11.956-5.124s8.541 1.707 11.956 5.124c10.249 8.541 20.497 17.080 30.746 25.621 6.832 5.124 8.541 17.080 3.417 23.914s-17.082 8.541-23.914 3.417zM409.516 156.344c-22.205 8.541-47.826 13.665-73.447 15.373-10.249 0-17.080-6.832-18.79-15.373-1.707-10.249 6.832-17.080 15.373-18.79 23.914-1.707 46.118-6.832 66.616-13.665 1.707 0 3.417 0 5.124 0 6.832 0 13.665 5.124 15.373 10.249 3.415 10.249-1.709 18.79-10.249 22.207zM247.246 171.717c-11.956-1.707-23.914-3.417-34.162-5.124-6.832 8.541-11.956 15.373-15.373 23.914 6.832 8.541 13.665 18.79 20.497 29.038 3.417 8.541 1.707 18.79-6.832 23.914-8.541 3.417-18.79 1.707-23.914-6.832-6.832-11.956-13.665-23.914-22.205-34.162-3.417-5.124-3.417-11.956-1.707-17.080 6.832-18.79 17.080-34.162 30.746-49.535 1.707-3.417 6.832-5.124 11.956-5.124 0 0 1.707 0 3.417 0 13.665 3.417 27.329 5.124 40.994 6.832 10.249 1.707 17.080 10.249 15.373 18.79-1.709 10.247-8.541 17.078-18.79 15.371zM254.078 554.328c-1.707 10.249-11.956 15.373-20.497 11.956-10.249-1.707-15.373-11.956-11.956-20.497 6.832-22.205 10.249-46.118 13.665-70.032 1.707-8.541 8.541-15.373 17.080-15.373 0 0 1.707 0 1.707-1.707 10.249 1.707 17.080 10.249 15.373 18.79-3.415 25.621-8.539 51.243-15.373 76.864zM252.37 402.309c-10.249 1.707-17.080-6.832-18.79-15.373-1.707-25.621-6.832-49.535-13.665-71.74-1.707-8.541 3.417-17.080 11.956-20.497 1.707 0 3.417 0 5.124 0 8.541 0 15.373 5.124 15.373 11.956 6.832 23.914 11.956 51.243 15.373 76.864 0.002 10.249-6.83 17.080-15.371 18.79zM216.501 643.15c-5.124 10.249-11.956 20.497-18.79 29.038 3.417 8.541 8.541 15.373 13.665 22.205 11.956-1.707 23.914-3.417 34.162-5.124 8.541 0 17.080 6.832 18.79 15.373 0 8.541-6.832 17.080-17.080 18.79-11.956 1.707-25.621 3.417-39.287 6.832-6.832 1.707-13.665 0-17.080-5.124-11.956-13.665-22.205-30.746-29.038-47.826-3.417-5.124-1.707-11.956 1.707-17.080 8.541-10.249 15.373-22.205 22.205-34.162 3.417-5.124 10.249-8.541 15.373-8.541 3.417 0 6.832 0 8.541 1.707 8.539 5.124 11.956 15.373 6.832 23.914zM399.267 767.84c-18.79-15.373-39.287-29.038-63.199-35.87-8.541-3.417-13.665-13.665-10.249-22.205 3.417-6.832 10.249-11.956 17.080-11.956 1.707 0 3.417 0 3.417 0 27.329 10.249 52.95 23.914 75.157 44.411 6.832 6.832 8.541 17.080 1.707 23.914-6.834 6.83-17.082 8.537-23.914 1.705zM554.703 877.157c-1.707 6.832-6.832 10.249-13.665 11.956-18.79 3.417-39.287 3.417-59.784 0-6.832-1.707-11.956-5.124-13.665-11.956-3.417-13.665-8.541-25.621-13.665-37.577-3.417-8.541 0-18.79 8.541-22.205 1.707-1.707 5.124-1.707 6.832-1.707 6.832 0 11.956 3.417 11.956 10.249 5.124 10.249 10.249 22.205 13.665 32.453 10.249 1.707 18.79 1.707 29.038 0 5.124-11.956 8.541-22.205 13.665-32.453 3.417-8.541 13.665-11.956 22.205-8.541s11.956 13.665 8.541 22.205c-5.122 11.956-10.247 23.914-13.663 37.577zM681.102 697.807c6.832 0 13.665 5.124 15.373 11.956 3.417 10.249-1.707 18.79-10.249 22.205-23.914 6.832-44.411 18.79-63.199 35.87-6.832 5.124-17.080 5.124-23.914-1.707-5.124-6.832-5.124-17.080 1.707-23.914 22.205-20.497 47.826-35.87 75.157-44.411 1.707 0.002 3.415 0.002 5.124 0.002zM778.463 689.268c11.956 0 22.205 3.417 34.162 5.124 5.124-6.832 10.249-13.665 13.665-22.205-6.832-8.541-13.665-18.79-18.79-29.038-3.417-8.541-1.707-18.79 6.832-23.914 3.417-1.707 5.124-1.707 8.541-1.707 5.124 0 10.249 3.417 13.665 8.541 6.832 11.956 13.665 23.914 22.205 34.162 3.417 5.124 3.417 11.956 1.707 17.080-6.832 17.080-17.080 34.162-29.038 47.826-5.124 5.124-10.249 6.832-17.080 5.124-13.665-3.417-25.621-5.124-39.287-6.832-10.249-1.707-17.080-10.249-15.373-18.79 1.707-10.249 8.541-17.082 18.79-15.373zM769.922 460.383h1.707c8.541 0 15.373 5.124 17.080 15.373 1.707 25.621 6.832 49.535 13.665 71.74 1.707 8.541-3.417 18.79-11.956 20.497s-17.080-3.417-20.497-11.956c-6.832-23.914-11.956-51.243-15.373-76.864 0-8.541 6.832-17.082 15.373-18.79zM787.002 294.699c1.707 0 3.417 0 3.417 0 10.249 1.707 15.373 11.956 11.956 20.497-6.832 23.914-10.249 47.826-13.665 71.74-1.707 10.249-8.541 17.080-18.79 15.373s-17.080-10.249-15.373-18.79c3.417-25.621 8.541-51.243 15.373-76.864 3.419-6.832 10.251-11.956 17.082-11.956zM807.499 219.542c5.124-10.249 11.956-20.497 18.79-29.038-5.124-8.541-10.249-17.080-15.373-23.914-11.956 1.707-22.205 3.417-34.162 5.124-10.249 0-17.080-6.832-18.79-15.373 0-8.541 6.832-17.080 15.373-18.79 13.665-1.707 27.329-3.417 40.994-6.832 1.707 0 1.707 0 3.417 0 5.124 0 10.249 1.707 13.665 5.124 13.665 15.373 23.914 30.746 30.746 49.535 3.417 5.124 1.707 11.956-1.707 17.080-8.541 10.249-15.373 22.205-22.205 34.162-5.124 8.541-15.373 11.956-23.914 6.832s-11.958-15.371-6.834-23.912zM687.934 173.424c-25.621-3.417-49.535-8.541-73.447-15.373-8.541-3.417-13.665-13.665-10.249-22.205 3.417-6.832 10.249-11.956 17.080-11.956 1.707 0 3.417 1.707 3.417 1.707 20.497 6.832 42.702 11.956 66.616 13.665 10.249 1.707 17.080 10.249 15.373 18.79-1.709 10.247-8.541 15.371-18.79 15.371z" />
<glyph unicode="&#xe911;" glyph-name="iron" d="M1024 518.824c0 179.518-146.048 325.566-325.566 325.566s-325.564-146.048-325.564-325.566c0-24.47 2.728-48.728 8.106-72.392l-25.254-3.73c-24.112-3.562-47.374-9.934-69.436-18.774l-34.608 54.082c-6.056 9.464-18.628 12.248-28.116 6.226l-65.064-41.316c-9.446-5.998-12.298-18.488-6.388-27.99l34.668-55.75c-26.004-25.354-47.668-55.484-63.582-89.428l-51.256-109.316-66.764-74.85c-5.35-6-6.678-14.582-3.392-21.918 3.286-7.338 10.576-12.058 18.616-12.058h983.204c11.266 0 20.398 9.132 20.398 20.398v445.774c0 0.060-0.008 0.116-0.010 0.176l0.008 0.866zM698.436 803.594c151.436 0 275.642-118.81 284.286-268.276l-56.766-8.386c-4.282 121.794-104.698 219.554-227.522 219.554-125.534 0-227.662-102.128-227.662-227.662 0-19.75 2.506-39.178 7.47-58.024l-56.782-8.388c-5.18 21.668-7.796 43.934-7.796 66.412 0.002 157.022 127.748 284.77 284.772 284.77zM601.448 557.874c-5.376-0.776-10.22-3.664-13.458-8.024-3.238-4.362-4.604-9.832-3.794-15.204l8.578-56.932-73.842-10.908c-4.876 16.826-7.36 34.256-7.36 52.014 0 103.038 83.828 186.866 186.866 186.866 102.336 0 185.71-82.694 186.84-184.766l-74.456-10.994-8.51 56.49c-1.67 11.092-11.98 18.766-23.086 17.148l-177.778-25.69zM770.458 503.962l-137.33-20.284-5.538 36.754 137.396 19.854 5.472-36.324zM228.268 438.898l20.966-32.764c-10.764-6.104-21.132-12.854-31.058-20.2l-20.754 33.378 30.846 19.586zM983.204 92.406h-917.278l32.354 36.276h884.924v-36.276zM983.204 169.48h-861.97l38.896 82.952c37.896 80.824 113.244 136.866 201.554 149.91l621.52 91.806v-324.668zM920.28 240.304h-31.246c-11.266 0-20.398-9.132-20.398-20.398s9.132-20.398 20.398-20.398h31.246c11.266 0 20.398 9.132 20.398 20.398 0 11.264-9.134 20.398-20.398 20.398zM795.298 240.304h-531.18c-11.266 0-20.398-9.132-20.398-20.398s9.132-20.398 20.398-20.398h531.178c11.266 0 20.398 9.132 20.398 20.398 0 11.264-9.132 20.398-20.396 20.398z" />
<glyph unicode="&#xe912;" glyph-name="eco" d="M240.748 259.954h-199.584v172.764h97.922c11.226 0 15.594 8.734 15.594 16.842 0 9.978-5.616 18.71-15.594 18.71h-97.922v171.518h199.584c9.978 0 15.59 9.356 15.59 19.958 0 8.734-4.364 18.086-15.59 18.086h-222.038c-9.356 0-18.71-4.988-18.71-15.592v-424.116c0-10.604 9.356-16.218 18.71-16.218h222.038c11.226 0 15.59 9.978 15.59 18.71 0.002 9.982-5.612 19.338-15.59 19.338zM542.626 349.144c-13.098 0-19.336-6.238-20.582-16.218-3.742-29.938-10.604-76.714-84.824-76.714-60.5 0-92.31 29.938-92.31 95.426v193.346c0 64.868 31.81 94.806 89.814 94.806 74.222 0 86.070-48.65 87.318-75.468 0.624-8.734 6.238-15.594 20.582-15.594s20.582 4.364 20.582 24.948c0 56.134-46.778 104.156-128.482 104.156-71.102 0-130.976-36.172-130.976-132.85v-193.346c0-97.296 58.628-133.47 129.106-133.47 82.33 0 130.354 48.648 130.354 105.406 0 20.582-6.238 25.572-20.582 25.572zM938.22 656.132h-34.608c-159.982 0-290.136-130.154-290.136-290.136v-99.576c0-11.494 9.32-20.814 20.812-20.814h99.576c159.982 0 290.136 130.154 290.136 290.136v34.608c0 47.3-38.482 85.782-85.78 85.782zM733.864 287.232h-49.326l153.202 153.202c8.128 8.128 8.128 21.306 0 29.436-8.13 8.126-21.304 8.126-29.436 0l-153.202-153.202v49.326c0 137.028 111.48 248.51 248.51 248.51h34.608c24.348 0 44.154-19.808 44.154-44.154v-34.608c0-137.028-111.48-248.51-248.51-248.51zM901.622 533.752c-8.13 8.126-21.304 8.126-29.434 0l-8.974-8.974c-8.128-8.128-8.128-21.306 0-29.436 4.064-4.062 9.39-6.096 14.716-6.096s10.652 2.034 14.716 6.096l8.974 8.974c8.13 8.128 8.13 21.308 0.002 29.436z" />
<glyph unicode="&#xe913;" glyph-name="water" d="M840.56 583.995c-31.459 68.095-75.254 135.166-130.178 199.353-93.295 109.028-185.273 171.249-189.144 173.843-5.589 3.747-12.89 3.747-18.478 0-3.868-2.594-95.849-64.815-189.144-173.843-54.924-64.185-98.722-131.258-130.178-199.353-39.538-85.589-59.584-173.014-59.584-259.848 0-214.025 174.12-388.147 388.147-388.147s388.147 174.122 388.147 388.147c0 86.834-20.049 174.259-59.587 259.848zM512-30.825c-195.732 0-354.972 159.24-354.972 354.972 0 81.836 18.945 164.422 56.309 245.461 30.083 65.246 72.107 129.672 124.901 191.484 73.662 86.239 148.221 143.464 173.766 162.009 25.461-18.465 99.571-75.312 173.173-161.323 52.943-61.873 95.088-126.368 125.269-191.698 37.505-81.192 56.526-163.937 56.526-245.933 0-195.732-159.24-354.972-354.972-354.972zM808.279 269.488c-8.909 2.156-17.868-3.315-20.024-12.217-19.007-78.503-70.959-145.514-142.537-183.851-8.075-4.324-11.116-14.378-6.79-22.453 2.99-5.582 8.716-8.758 14.637-8.758 2.641 0 5.323 0.633 7.816 1.968 79.896 42.791 137.893 117.616 159.116 205.289 2.156 8.902-3.313 17.868-12.217 20.022zM828.018 360.754c-0.677 9.134-8.608 15.979-17.766 15.318-9.136-0.677-15.993-8.63-15.318-17.766 0.84-11.339 1.265-22.831 1.265-34.157 0-9.163 7.425-16.587 16.587-16.587s16.587 7.425 16.587 16.587c0 12.14-0.456 24.457-1.356 36.605zM441.227 482.281c-9.163 0-16.587-7.425-16.587-16.587v-89.572h-108.371v89.572c0 9.163-7.425 16.587-16.587 16.587s-16.587-7.425-16.587-16.587v-212.32c0-9.163 7.425-16.587 16.587-16.587s16.587 7.425 16.587 16.587v89.572h108.371v-89.572c0-9.163 7.425-16.587 16.587-16.587s16.587 7.425 16.587 16.587v212.32c0 9.163-7.427 16.587-16.587 16.587zM740.907 324.147v70.773c0 48.17-39.191 87.361-87.361 87.361s-87.361-39.191-87.361-87.361v-70.773c0-48.17 39.191-87.361 87.361-87.361s87.361 39.191 87.361 87.361zM599.361 324.147v70.773c0 29.88 24.306 54.186 54.186 54.186s54.186-24.306 54.186-54.186v-70.773c0-29.88-24.306-54.186-54.186-54.186s-54.186 24.306-54.186 54.186zM520.847 183.706h8.847c23.78 0 43.127 19.348 43.127 43.127s-19.348 43.127-43.127 43.127h-17.693c-18.903 0-34.281-15.378-34.281-34.281 0-9.163 7.425-16.587 16.587-16.587s16.587 7.425 16.587 16.587c0 0.608 0.498 1.106 1.106 1.106h17.693c5.487 0 9.952-4.465 9.952-9.952s-4.465-9.952-9.952-9.952h-8.847c-23.78 0-43.127-19.348-43.127-43.127v-26.54c0-9.163 7.425-16.587 16.587-16.587h61.927c9.163 0 16.587 7.425 16.587 16.587s-7.425 16.587-16.587 16.587h-45.339v9.952c0 5.489 4.463 9.952 9.952 9.952z" />
<glyph unicode="&#xe914;" glyph-name="paint" d="M640.011 567.477h-17.937c-8.67 95.541-89.107 170.67-186.866 170.67v17.067h34.134c9.421 0 17.067 7.629 17.067 17.067v102.402c0 9.438-7.646 17.067-17.067 17.067h-102.402c-9.421 0-17.067-7.629-17.067-17.067v-102.402c0-9.438 7.646-17.067 17.067-17.067h34.134v-17.067c-97.759 0-178.213-75.129-186.866-170.67h-17.937c-9.421 0-17.067-7.629-17.067-17.067v-597.343c0-9.438 7.646-17.067 17.067-17.067h443.741c9.421 0 17.067 7.629 17.067 17.067v597.343c0 9.421-7.646 17.067-17.067 17.067zM384.006 857.615h68.268v-17.067h-17.067c-9.421 0-17.067-7.629-17.067-17.067s7.646-17.067 17.067-17.067h17.067v-17.067h-68.268v68.268zM401.073 704.013h34.134c78.935 0 144.147-59.837 152.664-136.536h-339.462c8.516 76.699 73.729 136.536 152.664 136.536zM213.337-29.866v563.209h409.607v-102.402h-256.004c-9.421 0-17.067-7.629-17.067-17.067v-324.272c0-9.438 7.646-17.067 17.067-17.067h256.004v-102.402h-409.607zM622.944 106.67h-238.937v290.138h238.937v-290.138zM537.609 806.415h17.067c9.421 0 17.067 7.629 17.067 17.067s-7.646 17.067-17.067 17.067h-17.067c-9.421 0-17.067-7.629-17.067-17.067s7.629-17.067 17.067-17.067zM622.944 840.548h-17.067c-9.421 0-17.067-7.629-17.067-17.067s7.646-17.067 17.067-17.067h17.067c9.421 0 17.067 7.629 17.067 17.067s-7.646 17.067-17.067 17.067zM759.479 840.548h-17.067c-9.438 0-17.067-7.629-17.067-17.067s7.629-17.067 17.067-17.067h17.067c9.438 0 17.067 7.629 17.067 17.067s-7.646 17.067-17.067 17.067zM691.212 840.548h-17.067c-9.421 0-17.067-7.629-17.067-17.067s7.646-17.067 17.067-17.067h17.067c9.421 0 17.067 7.629 17.067 17.067s-7.646 17.067-17.067 17.067zM827.747 840.548h-17.067c-9.438 0-17.067-7.629-17.067-17.067s7.629-17.067 17.067-17.067h17.067c9.438 0 17.067 7.629 17.067 17.067s-7.646 17.067-17.067 17.067zM602.378 879.188c1.792 0 3.601 0.29 5.393 0.887l16.197 5.393c8.943 2.987 13.773 12.63 10.786 21.59-2.97 8.926-12.595 13.807-21.59 10.786l-16.197-5.393c-8.943-2.987-13.773-12.63-10.786-21.59 2.372-7.151 9.045-11.674 16.197-11.674zM537.609 857.615c1.775 0 3.601 0.29 5.393 0.887l16.197 5.393c8.943 2.987 13.773 12.63 10.786 21.59-2.97 8.926-12.63 13.807-21.59 10.786l-16.197-5.393c-8.943-2.987-13.773-12.63-10.786-21.59 2.389-7.168 9.045-11.674 16.197-11.674zM667.13 900.795c1.775 0 3.601 0.29 5.376 0.87l16.197 5.376c8.943 2.987 13.79 12.63 10.803 21.59-2.97 8.943-12.664 13.739-21.573 10.82l-16.179-5.393c-8.943-2.987-13.79-12.63-10.803-21.59 2.355-7.151 9.028-11.674 16.179-11.674zM731.882 922.384c1.775 0 3.601 0.29 5.376 0.87l10.513 3.499c8.943 2.987 13.79 12.647 10.82 21.59-2.987 8.943-12.63 13.739-21.59 10.82l-10.513-3.499c-8.926-3.004-13.773-12.664-10.803-21.607 2.389-7.168 9.045-11.674 16.197-11.674zM596.968 734.511l16.197-5.393c1.792-0.597 3.601-0.887 5.393-0.887 7.151 0 13.807 4.523 16.197 11.674 2.987 8.943-1.843 18.603-10.786 21.59l-16.197 5.393c-8.926 3.004-18.603-1.826-21.59-10.786s1.843-18.603 10.786-21.59zM747.788 720.209l-10.513 3.499c-8.909 2.918-18.62-1.86-21.59-10.82-2.97-8.926 1.86-18.603 10.82-21.59l10.513-3.499c1.775-0.58 3.601-0.87 5.376-0.87 7.151 0 13.824 4.523 16.197 11.691 2.987 8.943-1.86 18.603-10.803 21.59zM688.703 739.905l-16.197 5.376c-8.943 2.918-18.603-1.86-21.573-10.82s1.86-18.603 10.803-21.59l16.197-5.376c1.775-0.58 3.601-0.87 5.376-0.87 7.151 0 13.824 4.523 16.197 11.691 2.987 8.96-1.86 18.603-10.803 21.59zM559.199 783.067l-16.197 5.393c-8.96 3.004-18.603-1.843-21.59-10.786s1.843-18.603 10.786-21.59l16.197-5.393c1.792-0.597 3.601-0.887 5.393-0.887 7.151 0 13.807 4.523 16.197 11.674 2.987 8.943-1.843 18.603-10.786 21.59z" />
<glyph unicode="&#xe915;" glyph-name="shirt" d="M1019.304 662.265l-131.855 158.999c-49.894 60.172-123.344 94.68-201.509 94.68h-347.877c-78.166 0-151.615-34.508-201.511-94.68l-131.855-158.999c-4.036-4.868-5.588-11.334-4.198-17.502s5.56-11.346 11.294-14.014l190.455-88.626v-541.67c0-11.266 9.132-20.398 20.398-20.398h582.712c11.264 0 20.398 9.132 20.398 20.398v541.78l186.593 88.584c5.688 2.7 9.81 7.876 11.17 14.024s-0.196 12.58-4.214 17.424zM621.090 875.146c-11.034-50.38-55.496-87.36-109.090-87.36s-98.060 36.978-109.092 87.36h218.181zM825.755 587.397v19.798c0 11.266-9.134 20.398-20.398 20.398s-20.398-9.132-20.398-20.398v-586.342h-541.916v586.342c0 11.266-9.132 20.398-20.398 20.398s-20.398-9.132-20.398-20.398v-20.072l-149.265 69.46 114.972 138.641c42.12 50.792 104.122 79.926 170.107 79.926l23.392 0.018c5.16-32.224 20.456-61.876 44.22-84.996 28.624-27.846 66.382-43.182 106.326-43.182s77.704 15.336 106.326 43.182c23.762 23.118 39.056 52.772 44.218 84.996l0.034-0.018h23.358c65.986 0 127.988-29.13 170.107-79.924l115.106-138.801-145.391-69.028zM296.737 397.312c-11.266 0-20.398-9.132-20.398-20.398v-308.375c0-11.266 9.132-20.398 20.398-20.398s20.398 9.132 20.398 20.398v308.375c0 11.266-9.132 20.398-20.398 20.398zM296.737 517.458c-11.266 0-20.398-9.132-20.398-20.398v-44.054c0-11.266 9.132-20.398 20.398-20.398s20.398 9.132 20.398 20.398v44.054c0 11.266-9.132 20.398-20.398 20.398z" />
<glyph unicode="&#xe916;" glyph-name="conversation-speech-bubbles" d="M512 891.611c-282.77 0-512-180.151-512-402.286 0-105.179 51.419-201.070 135.607-272.75-3.218-69.851-17.701-163.767-68.901-212.187 97.792 0 197.925 64.366 257.317 110.738 58.222-18.139 121.637-28.087 187.977-28.087 282.77 0 512 180.151 512 402.286s-229.23 402.286-512 402.286z" />
<glyph unicode="&#xe917;" glyph-name="icon" d="M1012.173 670.201l-586.764-586.638c-15.727-15.663-41.187-15.663-56.85 0l-356.827 359.11c-15.663 15.727-15.663 41.282 0 56.914l85.259 85.196c15.727 15.695 41.187 15.695 56.85 0l243.444-245.061 472.684 472.715c15.663 15.663 41.124 15.663 56.914 0l85.259-85.323c15.822-15.695 15.822-41.25 0.032-56.914z" />
<glyph unicode="&#xe918;" glyph-name="line-menu" d="M84.528 745.057c-48.302 0-84.528 36.226-84.528 84.528s36.226 86.943 84.528 86.943h852.528c48.302 0 86.943-38.642 86.943-86.943s-38.642-84.528-86.943-84.528h-852.528zM937.057 534.943c48.302 0 86.943-38.642 86.943-86.943s-38.642-84.528-86.943-84.528h-852.528c-48.302 0-84.528 36.226-84.528 84.528s36.226 86.943 84.528 86.943h852.528zM937.057 150.943c48.302 0 86.943-36.226 86.943-84.528s-38.642-86.943-86.943-86.943h-852.528c-48.302 0-84.528 38.642-84.528 86.943s36.226 84.528 84.528 84.528h852.528z" />
<glyph unicode="&#xe919;" glyph-name="magnifier" d="M995.866 99.865l-234.921 234.94c-35.003-54.438-81.327-100.738-135.765-135.744l234.94-234.94c37.506-37.498 98.318-37.498 135.744 0 37.508 37.437 37.508 98.248 0.002 135.744zM767.998 576c0 212.059-171.933 384-383.996 384-212.059 0-384-171.942-384-384s171.942-383.992 384-383.992c212.063 0 383.996 171.933 383.996 383.992zM384.002 288.011c-158.813 0-287.998 129.174-287.998 287.987s129.185 287.998 287.998 287.998c158.809 0 288.004-129.185 288.004-287.998s-129.195-287.987-288.004-287.987zM160.005 576h63.992c0 88.222 71.784 159.999 160.003 159.999v63.998c-123.495 0-223.995-100.5-223.995-223.997z" />
<glyph unicode="&#xe91a;" glyph-name="minus-sign-of-a-line-in-horizontal-position" d="M1023.998 448.020c0-49.495-40.112-89.62-89.633-89.62h-844.784c-24.733 0-47.13 10.028-63.351 26.249-16.208 16.197-26.229 38.598-26.229 63.344-0.013 49.502 40.112 89.62 89.627 89.607h844.804c49.482-0.011 89.555-40.105 89.567-89.58z" />
<glyph unicode="&#xe91b;" glyph-name="pencil" d="M511.986 960c-282.757 0-511.983-229.243-511.983-511.99s229.226-512.010 511.983-512.010 512.010 229.25 512.010 512.010-229.253 511.99-512.010 511.99zM755.377 591.548l-48.63-48.63-98.99 98.983-37.553-37.553 98.99-98.99-242.797-242.777-98.983 98.973-37.553-37.553 98.983-98.983-24.194-24.194-0.461 0.461c-2.683-4.417-7.045-7.639-12.227-8.789l-92.307-20.582c-1.382-0.311-2.789-0.461-4.178-0.461-5.038 0-9.933 1.983-13.561 5.622-4.656 4.639-6.595 11.339-5.161 17.76l20.572 92.279c1.161 5.178 4.39 9.551 8.8 12.227l-0.468 0.468 390.724 390.741c5.728 5.717 15.032 5.717 20.76-0.017l78.24-78.223c5.728-5.728 5.728-15.032-0.007-20.76z" />
<glyph unicode="&#xe91c;" glyph-name="pencil-striped-symbol-for-interface-edit-buttons" d="M986.553 650.96l-45.257-45.278-271.566 271.528 45.257 45.282c49.993 49.999 131.063 49.999 181.060 0l90.506-90.529c49.925-49.972 49.925-131.008 0-181.003zM352.926 107.937c-12.498-12.498-12.498-32.738 0-45.238 12.504-12.567 32.755-12.567 45.253 0l497.869 497.732-45.308 45.282-497.814-497.776zM126.623 334.187c-12.504-12.508-12.504-32.74 0-45.247 12.498-12.5 32.749-12.5 45.253 0l497.854 497.77-45.238 45.253-497.869-497.776zM714.928 741.491l-497.81-497.799c-24.997-24.949-24.934-65.508 0-90.506 25.008-25 65.502-25.116 90.565 0.068l497.81 497.706-90.565 90.531zM307.555 17.562c-15.307 15.326-22.685 34.747-25.43 54.76-6.506-1.005-13.059-1.939-19.753-1.939-34.192 0-66.306 13.365-90.495 37.554-24.189 24.25-37.502 56.32-37.502 90.508 0 6.234 0.935 12.31 1.813 18.367-20.688 2.817-39.81 11.879-54.811 26.88-1.439 1.429-1.935 3.368-3.246 4.934l-78.131-312.617 311.805 78.055c-1.374 1.251-2.929 2.188-4.25 3.499z" />
<glyph unicode="&#xe91d;" glyph-name="sales" d="M926.25 582.608l-0.024 166.377-158.297 51.343-97.677 134.736-158.252-51.627-158.255 51.623-97.674-134.732-158.297-51.343-0.024-166.381-97.75-134.604 97.753-134.608 0.021-166.377 158.297-51.343 97.677-134.736 158.252 51.627 158.255-51.623 97.674 134.732 158.297 51.343 0.024 166.381 97.75 134.604-97.75 134.608zM333.608 495.415c-17.070 17.173-26.584 38.789-26.584 64.851v23.329c0 26.262 9.462 48.030 26.432 65.304 16.973 17.27 41.598 25.903 72.914 25.903 31.714 0 55.603-8.633 72.569-25.903 16.973-17.273 25.001-39.045 25.001-65.304v-23.329c0-26.266-7.787-47.93-24.76-64.993-16.969-17.076-41.249-25.606-72.559-25.606-31.514-0.003-55.942 8.581-73.015 25.748zM423.519 260.283l-47.571 23.941 215.444 344.825 47.578-23.941-215.451-344.825zM714.675 312.093c0-26.463-8.264-48.231-25.133-65.3s-40.869-25.596-72.182-25.596c-31.51 0-56.163 8.578-73.439 25.751-17.263 17.17-26.162 38.886-26.162 65.145v23.333c0 26.059 8.889 47.726 26.062 65 17.166 17.277 41.563 25.907 72.869 25.907 31.714 0 55.907-8.592 72.776-25.751 16.869-17.177 25.209-38.893 25.209-65.155v-23.333zM430.608 535.196c5.555 6.726 7.694 15.107 7.694 25.147v23.184c0 10.029-2.194 18.507-7.849 25.433-5.662 6.927-13.418 10.392-23.92 10.392-10.298 0-19.015-3.465-24.666-10.392-5.655-6.927-9.203-15.404-9.203-25.433v-23.184c0-10.039 3.71-18.42 9.362-25.147 5.655-6.719 13.96-10.081 24.673-10.081 10.298 0 18.351 3.361 23.91 10.081zM616.846 370.885c-10.506 0-18.949-3.472-24.597-10.392-5.669-6.927-8.851-15.311-8.851-25.143v-23.174c0-9.645 3.589-17.968 10.060-24.998 6.464-7.023 14.52-10.53 23.813-10.53 12.523 0 20.832 3.106 25.281 9.335 4.436 6.218 6.484 14.948 6.484 26.193v23.174c0 9.835-2.608 18.216-8.367 25.143-5.759 6.92-13.525 10.392-23.823 10.392z" />
<glyph unicode="&#xe91e;" glyph-name="target" d="M84.936 415.454h71.442c15.082-171.46 152.409-307.994 323.076-323.076v-71.442c0-17.464 14.288-32.546 32.546-32.546 17.464 0 32.546 14.288 32.546 32.546v71.442c171.46 15.082 307.994 152.409 323.076 323.076h71.442c17.464 0 32.546 14.288 32.546 32.546 0 17.464-14.288 32.546-32.546 32.546h-71.442c-15.082 171.46-152.409 307.994-323.076 323.076v71.442c0 17.464-14.288 32.546-32.546 32.546-17.464 0-32.546-14.288-32.546-32.546v-71.442c-171.46-15.082-307.994-152.409-323.076-323.076h-71.442c-18.257 0-32.546-14.288-32.546-32.546s15.082-32.546 32.546-32.546zM352.447 480.546h-130.977c15.082 135.74 123.039 243.696 257.984 257.984v-130.977c0-17.464 14.288-32.546 32.546-32.546 17.464 0 32.546 14.288 32.546 32.546v130.977c135.74-15.082 243.696-123.039 257.984-257.984h-130.977c-17.464 0-32.546-14.288-32.546-32.546 0-17.464 14.288-32.546 32.546-32.546h130.977c-15.082-135.74-123.039-243.696-257.984-257.984v130.977c0 17.464-14.288 32.546-32.546 32.546-17.464 0-32.546-14.288-32.546-32.546v-130.977c-135.74 15.082-243.696 123.039-257.984 257.984h130.977c17.464 0 32.546 14.288 32.546 32.546 0 17.464-15.082 32.546-32.546 32.546z" />
</font>
</defs>
</svg>
